<?xml version="1.0" encoding="UTF-8"?><svg id="Layer_1" xmlns="http://www.w3.org/2000/svg" xmlns:xlink="http://www.w3.org/1999/xlink" viewBox="0 0 512 512"><defs><style>.cls-1{fill:none;}.cls-2{clip-path:url(#clippath);}.cls-3{fill:#231f20;}</style><clipPath id="clippath"><rect class="cls-1" x="388.25" y="67.99" width="376.02" height="376.02" transform="translate(-12.24 482.46) rotate(-45)"/></clipPath></defs><g><rect class="cls-3" x="160.59" y="174.05" width="78.22" height="163.9"/><polygon class="cls-3" points="351.41 414.54 257.87 337.95 257.87 174.05 351.41 97.46 351.41 414.54"/></g><g class="cls-2"><g><path class="cls-3" d="m313.7,364.08c-59.59,0-108.08-48.48-108.08-108.08s48.48-108.08,108.08-108.08,108.08,48.48,108.08,108.08-48.48,108.08-108.08,108.08Zm0-210.16c-56.29,0-102.08,45.79-102.08,102.08s45.79,102.08,102.08,102.08,102.08-45.79,102.08-102.08-45.79-102.08-102.08-102.08Z"/><path class="cls-3" d="m313.7,412.92c-86.53,0-156.92-70.4-156.92-156.92s70.4-156.92,156.92-156.92,156.92,70.4,156.92,156.92-70.4,156.92-156.92,156.92Zm0-307.85c-83.22,0-150.92,67.7-150.92,150.92s67.7,150.92,150.92,150.92,150.92-67.7,150.92-150.92-67.7-150.92-150.92-150.92Z"/></g></g><path class="cls-3" d="m512.5,512.5H-.5V-.5h513v513ZM.5,511.5h511V.5H.5v511Z"/></svg>