<svg xmlns="http://www.w3.org/2000/svg" id="Layer_1" viewBox="0 0 512 512"><defs><style>.cls-1{fill:#fff}</style></defs><path d="M493.68 301.63h-1v-52.64H19.32v52.64h-1v-53.64h475.36z" class="cls-1"/><path d="M65.76 248.49h1v26.07h-1zM113.19 248.49h1v26.07h-1zM160.63 248.49h1v26.07h-1zM208.07 248.49h1v26.07h-1zM255.5 248.49h1v46.88h-1zM302.94 248.49h1v26.07h-1zM350.37 248.49h1v26.07h-1zM397.81 248.49h1v26.07h-1zM445.25 248.49h1v26.07h-1z" class="cls-1"/><path d="M10.82 239.11h490.37v16H10.82zM281.02 173.66l-63.94 63.94-63.95-63.94z" class="cls-1"/></svg>