<?xml version="1.0" encoding="UTF-8"?><svg id="Layer_1" xmlns="http://www.w3.org/2000/svg" viewBox="0 0 512 512"><defs><style>.cls-1{fill:#ffffff;}.cls-2{fill:none;stroke:#ffffff;stroke-miterlimit:10;}</style></defs><g><path class="cls-1" d="m76.91,162.27c5.1-8.74,11.71-16.02,19.84-21.84,8.13-5.82,17.29-10.19,27.48-13.1,10.19-2.91,20.5-4.37,30.94-4.37,15.77,0,29.12,2.43,40.04,7.28,10.92,4.86,19.71,10.74,26.39,17.65,6.67,6.92,11.47,14.32,14.38,22.2,2.91,7.89,4.37,14.99,4.37,21.29,0,12.62-3.09,23.66-9.28,33.12-6.19,9.46-15.47,16.26-27.85,20.38v.73c15.29,3.4,27.06,10.62,35.31,21.66,8.25,11.04,12.38,24.57,12.38,40.59,0,13.59-2.73,25.36-8.19,35.31-5.46,9.95-12.68,18.2-21.66,24.75-8.98,6.55-19.17,11.47-30.58,14.74-11.41,3.28-23.06,4.91-34.94,4.91s-24.33-1.52-35.85-4.55c-11.53-3.03-21.84-7.83-30.94-14.38s-16.38-14.8-21.84-24.75c-5.46-9.95-8.19-21.84-8.19-35.67,0-16.25,4.19-29.85,12.56-40.77,8.37-10.92,20.2-18.2,35.49-21.84v-.73c-12.38-3.4-21.72-9.83-28.03-19.29-6.31-9.46-9.46-20.5-9.46-33.12,0-11.4,2.55-21.48,7.64-30.21Zm37.13,161.25c2.42,5.34,5.64,9.89,9.65,13.65,4,3.77,8.79,6.68,14.38,8.74,5.58,2.06,11.4,3.09,17.47,3.09s12.07-1.03,17.29-3.09c5.22-2.06,9.83-4.97,13.83-8.74,4-3.76,7.1-8.31,9.28-13.65,2.18-5.33,3.28-11.16,3.28-17.47s-1.15-11.58-3.46-16.56c-2.31-4.97-5.46-9.28-9.46-12.92-4-3.64-8.62-6.43-13.83-8.37-5.22-1.94-10.86-2.91-16.93-2.91-12.62,0-23.3,3.46-32.03,10.37-8.74,6.92-13.1,16.93-13.1,30.03,0,6.55,1.21,12.5,3.64,17.84Zm13.83-101.37c7.76,5.7,16.86,8.55,27.3,8.55s20.02-2.85,27.3-8.55c7.28-5.7,10.92-14.01,10.92-24.93,0-3.4-.49-7.1-1.46-11.1-.97-4-2.86-7.83-5.64-11.47-2.79-3.64-6.68-6.67-11.65-9.1-4.98-2.42-11.47-3.64-19.47-3.64-5.1,0-10.01.79-14.74,2.37-4.73,1.58-8.92,3.82-12.56,6.73-3.64,2.91-6.5,6.55-8.55,10.92-2.06,4.37-3.09,9.46-3.09,15.29,0,10.92,3.88,19.24,11.65,24.93Z"/><path class="cls-1" d="m279.3,162.27c5.1-8.74,11.71-16.02,19.84-21.84,8.13-5.82,17.29-10.19,27.48-13.1,10.19-2.91,20.5-4.37,30.94-4.37,15.77,0,29.12,2.43,40.04,7.28,10.92,4.86,19.71,10.74,26.39,17.65,6.67,6.92,11.47,14.32,14.38,22.2,2.91,7.89,4.37,14.99,4.37,21.29,0,12.62-3.09,23.66-9.28,33.12-6.19,9.46-15.47,16.26-27.85,20.38v.73c15.29,3.4,27.06,10.62,35.31,21.66,8.25,11.04,12.38,24.57,12.38,40.59,0,13.59-2.73,25.36-8.19,35.31-5.46,9.95-12.68,18.2-21.66,24.75-8.98,6.55-19.17,11.47-30.58,14.74-11.41,3.28-23.06,4.91-34.94,4.91s-24.33-1.52-35.85-4.55c-11.53-3.03-21.84-7.83-30.94-14.38s-16.38-14.8-21.84-24.75c-5.46-9.95-8.19-21.84-8.19-35.67,0-16.25,4.19-29.85,12.56-40.77,8.37-10.92,20.2-18.2,35.49-21.84v-.73c-12.38-3.4-21.72-9.83-28.03-19.29-6.31-9.46-9.46-20.5-9.46-33.12,0-11.4,2.55-21.48,7.64-30.21Zm37.13,161.25c2.42,5.34,5.64,9.89,9.65,13.65,4,3.77,8.79,6.68,14.38,8.74,5.58,2.06,11.4,3.09,17.47,3.09s12.07-1.03,17.29-3.09c5.22-2.06,9.83-4.97,13.83-8.74,4-3.76,7.1-8.31,9.28-13.65,2.18-5.33,3.28-11.16,3.28-17.47s-1.15-11.58-3.46-16.56c-2.31-4.97-5.46-9.28-9.46-12.92-4-3.64-8.62-6.43-13.83-8.37-5.22-1.94-10.86-2.91-16.93-2.91-12.62,0-23.3,3.46-32.03,10.37-8.74,6.92-13.1,16.93-13.1,30.03,0,6.55,1.21,12.5,3.64,17.84Zm13.83-101.37c7.76,5.7,16.86,8.55,27.3,8.55s20.02-2.85,27.3-8.55c7.28-5.7,10.92-14.01,10.92-24.93,0-3.4-.49-7.1-1.46-11.1-.97-4-2.86-7.83-5.64-11.47-2.79-3.64-6.68-6.67-11.65-9.1-4.98-2.42-11.47-3.64-19.47-3.64-5.1,0-10.01.79-14.74,2.37-4.73,1.58-8.92,3.82-12.56,6.73-3.64,2.91-6.5,6.55-8.55,10.92-2.06,4.37-3.09,9.46-3.09,15.29,0,10.92,3.88,19.24,11.65,24.93Z"/></g></svg>