<?xml version="1.0" encoding="UTF-8"?><svg id="Layer_1" xmlns="http://www.w3.org/2000/svg" viewBox="0 0 512 512"><defs><style>.cls-1{fill:#ffffff;}</style></defs><g><circle class="cls-1" cx="33.28" cy="248.49" r="24.05"/><circle class="cls-1" cx="144.64" cy="248.49" r="24.05"/><path class="cls-1" d="m256,275.54c-14.92,0-27.05-12.13-27.05-27.05s12.13-27.05,27.05-27.05,27.05,12.13,27.05,27.05-12.13,27.05-27.05,27.05Zm0-48.1c-11.61,0-21.05,9.44-21.05,21.05s9.44,21.05,21.05,21.05,21.05-9.44,21.05-21.05-9.44-21.05-21.05-21.05Z"/><path class="cls-1" d="m478.72,275.54c-14.92,0-27.05-12.13-27.05-27.05s12.13-27.05,27.05-27.05,27.05,12.13,27.05,27.05-12.13,27.05-27.05,27.05Zm0-48.1c-11.61,0-21.05,9.44-21.05,21.05s9.44,21.05,21.05,21.05,21.05-9.44,21.05-21.05-9.44-21.05-21.05-21.05Z"/><path class="cls-1" d="m367.36,275.54c-14.92,0-27.05-12.13-27.05-27.05s12.13-27.05,27.05-27.05,27.05,12.13,27.05,27.05-12.13,27.05-27.05,27.05Zm0-48.1c-11.61,0-21.05,9.44-21.05,21.05s9.44,21.05,21.05,21.05,21.05-9.44,21.05-21.05-9.44-21.05-21.05-21.05Z"/></g></svg>